<mxfile host="app.diagrams.net" modified="2022-10-31T08:33:19.472Z" agent="5.0 (Macintosh; Intel Mac OS X 10_15_7) AppleWebKit/537.36 (KHTML, like Gecko) Chrome/106.0.0.0 Safari/537.36" etag="swVYZNi6QxIjvejqw7zE" version="20.5.1" type="github">
  <diagram id="UzT3iVnbLloPcEWd9s-E" name="Page-1">
    <mxGraphModel dx="1426" dy="794" grid="1" gridSize="10" guides="1" tooltips="1" connect="1" arrows="1" fold="1" page="1" pageScale="1" pageWidth="850" pageHeight="1100" math="0" shadow="0">
      <root>
        <mxCell id="0" />
        <mxCell id="1" parent="0" />
        <mxCell id="XANZhmx01FuTuKuIewkG-10" value="" style="rounded=1;whiteSpace=wrap;html=1;" vertex="1" parent="1">
          <mxGeometry x="370" y="220" width="280" height="240" as="geometry" />
        </mxCell>
        <mxCell id="XANZhmx01FuTuKuIewkG-9" value="" style="rounded=1;whiteSpace=wrap;html=1;" vertex="1" parent="1">
          <mxGeometry x="70" y="220" width="190" height="110" as="geometry" />
        </mxCell>
        <mxCell id="XANZhmx01FuTuKuIewkG-1" value="" style="shape=cylinder3;whiteSpace=wrap;html=1;boundedLbl=1;backgroundOutline=1;size=15;" vertex="1" parent="1">
          <mxGeometry x="90" y="235" width="60" height="80" as="geometry" />
        </mxCell>
        <mxCell id="XANZhmx01FuTuKuIewkG-2" value="" style="shape=cylinder3;whiteSpace=wrap;html=1;boundedLbl=1;backgroundOutline=1;size=15;" vertex="1" parent="1">
          <mxGeometry x="390" y="250" width="60" height="80" as="geometry" />
        </mxCell>
        <mxCell id="XANZhmx01FuTuKuIewkG-3" value="" style="shape=cylinder3;whiteSpace=wrap;html=1;boundedLbl=1;backgroundOutline=1;size=15;" vertex="1" parent="1">
          <mxGeometry x="480" y="250" width="60" height="80" as="geometry" />
        </mxCell>
        <mxCell id="XANZhmx01FuTuKuIewkG-4" value="" style="shape=cylinder3;whiteSpace=wrap;html=1;boundedLbl=1;backgroundOutline=1;size=15;" vertex="1" parent="1">
          <mxGeometry x="570" y="250" width="60" height="80" as="geometry" />
        </mxCell>
        <mxCell id="XANZhmx01FuTuKuIewkG-5" value="" style="shape=cylinder3;whiteSpace=wrap;html=1;boundedLbl=1;backgroundOutline=1;size=15;" vertex="1" parent="1">
          <mxGeometry x="390" y="340" width="60" height="80" as="geometry" />
        </mxCell>
        <mxCell id="XANZhmx01FuTuKuIewkG-6" value="" style="shape=cylinder3;whiteSpace=wrap;html=1;boundedLbl=1;backgroundOutline=1;size=15;" vertex="1" parent="1">
          <mxGeometry x="480" y="340" width="60" height="80" as="geometry" />
        </mxCell>
        <mxCell id="XANZhmx01FuTuKuIewkG-7" value="" style="shape=cylinder3;whiteSpace=wrap;html=1;boundedLbl=1;backgroundOutline=1;size=15;" vertex="1" parent="1">
          <mxGeometry x="570" y="340" width="60" height="80" as="geometry" />
        </mxCell>
        <mxCell id="XANZhmx01FuTuKuIewkG-8" value="" style="shape=cylinder3;whiteSpace=wrap;html=1;boundedLbl=1;backgroundOutline=1;size=15;" vertex="1" parent="1">
          <mxGeometry x="180" y="235" width="60" height="80" as="geometry" />
        </mxCell>
        <mxCell id="XANZhmx01FuTuKuIewkG-11" value="&lt;font style=&quot;font-size: 16px;&quot;&gt;Group A&lt;/font&gt;" style="text;html=1;strokeColor=none;fillColor=none;align=center;verticalAlign=middle;whiteSpace=wrap;rounded=0;" vertex="1" parent="1">
          <mxGeometry x="125" y="330" width="80" height="30" as="geometry" />
        </mxCell>
        <mxCell id="XANZhmx01FuTuKuIewkG-12" value="&lt;font style=&quot;font-size: 16px;&quot;&gt;Group B&lt;/font&gt;" style="text;html=1;strokeColor=none;fillColor=none;align=center;verticalAlign=middle;whiteSpace=wrap;rounded=0;" vertex="1" parent="1">
          <mxGeometry x="470" y="460" width="80" height="30" as="geometry" />
        </mxCell>
        <mxCell id="XANZhmx01FuTuKuIewkG-13" value="" style="endArrow=classic;html=1;rounded=0;fontSize=16;exitX=1;exitY=0.5;exitDx=0;exitDy=0;exitPerimeter=0;entryX=0;entryY=0.5;entryDx=0;entryDy=0;entryPerimeter=0;" edge="1" parent="1" source="XANZhmx01FuTuKuIewkG-1" target="XANZhmx01FuTuKuIewkG-8">
          <mxGeometry width="50" height="50" relative="1" as="geometry">
            <mxPoint x="240" y="430" as="sourcePoint" />
            <mxPoint x="320" y="370" as="targetPoint" />
          </mxGeometry>
        </mxCell>
        <mxCell id="XANZhmx01FuTuKuIewkG-14" value="" style="endArrow=classic;html=1;rounded=0;fontSize=16;entryX=1;entryY=0;entryDx=0;entryDy=52.5;entryPerimeter=0;exitX=0;exitY=0;exitDx=0;exitDy=52.5;exitPerimeter=0;" edge="1" parent="1" source="XANZhmx01FuTuKuIewkG-8" target="XANZhmx01FuTuKuIewkG-1">
          <mxGeometry width="50" height="50" relative="1" as="geometry">
            <mxPoint x="310" y="450" as="sourcePoint" />
            <mxPoint x="190" y="285" as="targetPoint" />
          </mxGeometry>
        </mxCell>
        <mxCell id="XANZhmx01FuTuKuIewkG-15" value="" style="endArrow=classic;html=1;rounded=0;fontSize=16;exitX=1;exitY=0.5;exitDx=0;exitDy=0;exitPerimeter=0;entryX=0;entryY=0.5;entryDx=0;entryDy=0;entryPerimeter=0;" edge="1" parent="1">
          <mxGeometry width="50" height="50" relative="1" as="geometry">
            <mxPoint x="450" y="289.5" as="sourcePoint" />
            <mxPoint x="480" y="289.5" as="targetPoint" />
          </mxGeometry>
        </mxCell>
        <mxCell id="XANZhmx01FuTuKuIewkG-16" value="" style="endArrow=classic;html=1;rounded=0;fontSize=16;exitX=1;exitY=0.5;exitDx=0;exitDy=0;exitPerimeter=0;entryX=0;entryY=0.5;entryDx=0;entryDy=0;entryPerimeter=0;" edge="1" parent="1">
          <mxGeometry width="50" height="50" relative="1" as="geometry">
            <mxPoint x="540" y="289.5" as="sourcePoint" />
            <mxPoint x="570" y="289.5" as="targetPoint" />
          </mxGeometry>
        </mxCell>
        <mxCell id="XANZhmx01FuTuKuIewkG-17" value="" style="endArrow=classic;html=1;rounded=0;fontSize=16;exitX=1;exitY=0.5;exitDx=0;exitDy=0;exitPerimeter=0;entryX=0;entryY=0.5;entryDx=0;entryDy=0;entryPerimeter=0;" edge="1" parent="1">
          <mxGeometry width="50" height="50" relative="1" as="geometry">
            <mxPoint x="540" y="379.5" as="sourcePoint" />
            <mxPoint x="570" y="379.5" as="targetPoint" />
          </mxGeometry>
        </mxCell>
        <mxCell id="XANZhmx01FuTuKuIewkG-18" value="" style="endArrow=classic;html=1;rounded=0;fontSize=16;exitX=1;exitY=0.5;exitDx=0;exitDy=0;exitPerimeter=0;entryX=0;entryY=0.5;entryDx=0;entryDy=0;entryPerimeter=0;" edge="1" parent="1">
          <mxGeometry width="50" height="50" relative="1" as="geometry">
            <mxPoint x="450" y="379.5" as="sourcePoint" />
            <mxPoint x="480" y="379.5" as="targetPoint" />
          </mxGeometry>
        </mxCell>
        <mxCell id="XANZhmx01FuTuKuIewkG-19" value="" style="endArrow=classic;html=1;rounded=0;fontSize=16;entryX=1;entryY=0;entryDx=0;entryDy=52.5;entryPerimeter=0;exitX=0;exitY=0;exitDx=0;exitDy=52.5;exitPerimeter=0;" edge="1" parent="1">
          <mxGeometry width="50" height="50" relative="1" as="geometry">
            <mxPoint x="480" y="297.5" as="sourcePoint" />
            <mxPoint x="450" y="297.5" as="targetPoint" />
          </mxGeometry>
        </mxCell>
        <mxCell id="XANZhmx01FuTuKuIewkG-20" value="" style="endArrow=classic;html=1;rounded=0;fontSize=16;entryX=1;entryY=0;entryDx=0;entryDy=52.5;entryPerimeter=0;exitX=0;exitY=0;exitDx=0;exitDy=52.5;exitPerimeter=0;" edge="1" parent="1">
          <mxGeometry width="50" height="50" relative="1" as="geometry">
            <mxPoint x="570" y="300" as="sourcePoint" />
            <mxPoint x="540" y="300" as="targetPoint" />
          </mxGeometry>
        </mxCell>
        <mxCell id="XANZhmx01FuTuKuIewkG-21" value="" style="endArrow=classic;html=1;rounded=0;fontSize=16;entryX=1;entryY=0;entryDx=0;entryDy=52.5;entryPerimeter=0;exitX=0;exitY=0;exitDx=0;exitDy=52.5;exitPerimeter=0;" edge="1" parent="1">
          <mxGeometry width="50" height="50" relative="1" as="geometry">
            <mxPoint x="480" y="390" as="sourcePoint" />
            <mxPoint x="450" y="390" as="targetPoint" />
          </mxGeometry>
        </mxCell>
        <mxCell id="XANZhmx01FuTuKuIewkG-22" value="" style="endArrow=classic;html=1;rounded=0;fontSize=16;entryX=1;entryY=0;entryDx=0;entryDy=52.5;entryPerimeter=0;exitX=0;exitY=0;exitDx=0;exitDy=52.5;exitPerimeter=0;" edge="1" parent="1">
          <mxGeometry width="50" height="50" relative="1" as="geometry">
            <mxPoint x="570" y="390" as="sourcePoint" />
            <mxPoint x="540" y="390" as="targetPoint" />
          </mxGeometry>
        </mxCell>
      </root>
    </mxGraphModel>
  </diagram>
</mxfile>
